<?xml version="1.0" encoding="UTF-8" standalone="no"?>
<svg
   xmlns:dc="http://purl.org/dc/elements/1.1/"
   xmlns:cc="http://creativecommons.org/ns#"
   xmlns:rdf="http://www.w3.org/1999/02/22-rdf-syntax-ns#"
   xmlns:svg="http://www.w3.org/2000/svg"
   xmlns="http://www.w3.org/2000/svg"
   xmlns:sodipodi="http://sodipodi.sourceforge.net/DTD/sodipodi-0.dtd"
   xmlns:inkscape="http://www.inkscape.org/namespaces/inkscape"
   width="210mm"
   height="297mm"
   viewBox="0 0 210 297"
   version="1.1"
   id="svg27"
   inkscape:version="1.0.2 (e86c870879, 2021-01-15, custom)"
   sodipodi:docname="Icono_hueco.svg">
  <defs
     id="defs21" />
  <sodipodi:namedview
     id="base"
     pagecolor="#ffffff"
     bordercolor="#666666"
     borderopacity="1.0"
     inkscape:pageopacity="0.0"
     inkscape:pageshadow="2"
     inkscape:zoom="0.49497475"
     inkscape:cx="435.98402"
     inkscape:cy="541.58957"
     inkscape:document-units="mm"
     inkscape:current-layer="layer1"
     inkscape:document-rotation="0"
     showgrid="false"
     inkscape:window-width="1920"
     inkscape:window-height="1001"
     inkscape:window-x="-9"
     inkscape:window-y="-9"
     inkscape:window-maximized="1" />
  <metadata
     id="metadata24">
    <rdf:RDF>
      <cc:Work
         rdf:about="">
        <dc:format>image/svg+xml</dc:format>
        <dc:type
           rdf:resource="http://purl.org/dc/dcmitype/StillImage" />
        <dc:title />
      </cc:Work>
    </rdf:RDF>
  </metadata>
  <g
     inkscape:label="Capa 1"
     inkscape:groupmode="layer"
     id="layer1">
    <path
       id="rect350"
       style="fill:none;fill-opacity:1;stroke:#ffffff;stroke-width:10.2577;stroke-miterlimit:4;stroke-dasharray:none"
       d="m 77.809778,78.113776 c 0,0 -23.428247,-0.513202 -48.054251,17.95643 0,0 -24.626677,44.635944 -24.626677,99.702474 0,0 14.365195,24.79568 52.15926,25.99272 0,0 6.326167,-7.69696 11.456584,-14.19544 -21.718777,-6.49856 -29.927445,-20.17762 -29.927445,-20.17762 0,0 1.711474,1.19576 4.789725,2.90586 0.171284,0.17129 0.342567,0.34323 0.684746,0.51451 0.513203,0.34191 1.023368,0.51321 1.536443,0.85507 4.275294,2.3942 8.551946,4.27605 12.485319,5.81515 7.011624,2.73619 15.389894,5.47045 25.137721,7.35161 12.826011,2.39414 27.875917,3.24857 44.293267,0.16999 8.03763,-1.36814 16.24631,-3.76029 24.79702,-7.3516 5.98548,-2.22321 12.65506,-5.47312 19.66661,-10.09047 0,0 -8.55007,14.02376 -30.9528,20.35129 5.13041,6.49856 11.28619,13.85146 11.28619,13.85146 37.79407,-1.19705 52.32963,-25.99279 52.32963,-25.99279 0,-55.06647 -24.62337,-99.702347 -24.62337,-99.702409 -24.626,-18.469502 -48.05761,-17.956492 -48.05761,-17.956492 l -2.3915,2.735553 c 29.07239,8.892767 42.57978,21.720778 42.57978,21.720778 -17.7854,-9.747757 -35.22817,-14.538839 -51.47449,-16.419982 -12.31301,-1.368133 -24.111638,-1.02408 -34.543498,0.34386 -1.026083,0 -1.883147,0.169344 -2.909229,0.340627 -5.985477,0.513204 -20.520378,2.737622 -38.818791,10.775259 -6.327527,2.907226 -10.090521,4.960056 -10.090521,4.960056 0,0 14.195501,-13.512769 44.978007,-22.405472 z M 73.01999,141.90326 c 9.747824,0 17.616512,8.55007 17.445487,18.98186 0,10.43186 -7.697663,18.98188 -17.445487,18.98188 -9.576737,7e-5 -17.442062,-8.55002 -17.442062,-18.98188 0,-10.43179 7.6943,-18.98186 17.442062,-18.98186 z m 62.42014,0 c 9.74776,0 17.44543,8.55007 17.44543,18.98186 0,10.43186 -7.69767,18.98188 -17.44543,18.98188 -9.57681,7e-5 -17.44207,-8.55002 -17.44207,-18.98188 0,-10.43179 7.69424,-18.98186 17.44207,-18.98186 z" />
  </g>
</svg>
