<?xml version="1.0" encoding="UTF-8" standalone="no"?>
<svg
   xmlns:dc="http://purl.org/dc/elements/1.1/"
   xmlns:cc="http://creativecommons.org/ns#"
   xmlns:rdf="http://www.w3.org/1999/02/22-rdf-syntax-ns#"
   xmlns:svg="http://www.w3.org/2000/svg"
   xmlns="http://www.w3.org/2000/svg"
   xmlns:sodipodi="http://sodipodi.sourceforge.net/DTD/sodipodi-0.dtd"
   xmlns:inkscape="http://www.inkscape.org/namespaces/inkscape"
   width="24"
   height="24"
   viewBox="0 0 24 24"
   version="1.1"
   id="svg4"
   sodipodi:docname="analytics.svg"
   inkscape:version="1.0.2-2 (e86c870879, 2021-01-15)">
  <metadata
     id="metadata10">
    <rdf:RDF>
      <cc:Work
         rdf:about="">
        <dc:format>image/svg+xml</dc:format>
        <dc:type
           rdf:resource="http://purl.org/dc/dcmitype/StillImage" />
      </cc:Work>
    </rdf:RDF>
  </metadata>
  <defs
     id="defs8" />
  <sodipodi:namedview
     pagecolor="#ffffff"
     bordercolor="#666666"
     borderopacity="1"
     objecttolerance="10"
     gridtolerance="10"
     guidetolerance="10"
     inkscape:pageopacity="0"
     inkscape:pageshadow="2"
     inkscape:window-width="1920"
     inkscape:window-height="1001"
     id="namedview6"
     showgrid="false"
     inkscape:zoom="34.583333"
     inkscape:cx="12"
     inkscape:cy="12"
     inkscape:window-x="-9"
     inkscape:window-y="-9"
     inkscape:window-maximized="1"
     inkscape:current-layer="svg4" />
  <path
     fill="black"
     d="M 2.4003906 0 A 2.4 2.4 0 0 0 0 2.4003906 L 0 16.800781 A 2.4 2.4 0 0 0 2.4003906 19.199219 L 4.8007812 19.199219 L 4.8007812 24 L 11.199219 19.199219 L 21.599609 19.199219 A 2.4 2.4 0 0 0 24 16.800781 L 24 2.4003906 A 2.4 2.4 0 0 0 21.599609 0 L 2.4003906 0 z M 2.4003906 2.4003906 L 21.599609 2.4003906 L 21.599609 16.800781 L 10.400391 16.800781 L 7.1992188 19.199219 L 7.1992188 16.800781 L 2.4003906 16.800781 L 2.4003906 2.4003906 z M 6 4.8007812 L 6 14.400391 L 8.4003906 14.400391 L 8.4003906 4.8007812 L 6 4.8007812 z M 15.599609 7.1992188 L 15.599609 14.400391 L 18 14.400391 L 18 7.1992188 L 15.599609 7.1992188 z M 10.800781 9.5996094 L 10.800781 14.400391 L 13.199219 14.400391 L 13.199219 9.5996094 L 10.800781 9.5996094 z"
     id="path2"
     style="fill:#ffffff" />
</svg>
