<?xml version="1.0" encoding="UTF-8" standalone="no"?>
<svg
   xmlns:dc="http://purl.org/dc/elements/1.1/"
   xmlns:cc="http://creativecommons.org/ns#"
   xmlns:rdf="http://www.w3.org/1999/02/22-rdf-syntax-ns#"
   xmlns:svg="http://www.w3.org/2000/svg"
   xmlns="http://www.w3.org/2000/svg"
   xmlns:sodipodi="http://sodipodi.sourceforge.net/DTD/sodipodi-0.dtd"
   xmlns:inkscape="http://www.inkscape.org/namespaces/inkscape"
   width="24"
   height="24"
   viewBox="0 0 24 24"
   version="1.1"
   id="svg4"
   sodipodi:docname="audit.svg"
   inkscape:version="1.0.2-2 (e86c870879, 2021-01-15)">
  <metadata
     id="metadata10">
    <rdf:RDF>
      <cc:Work
         rdf:about="">
        <dc:format>image/svg+xml</dc:format>
        <dc:type
           rdf:resource="http://purl.org/dc/dcmitype/StillImage" />
      </cc:Work>
    </rdf:RDF>
  </metadata>
  <defs
     id="defs8" />
  <sodipodi:namedview
     pagecolor="#ffffff"
     bordercolor="#666666"
     borderopacity="1"
     objecttolerance="10"
     gridtolerance="10"
     guidetolerance="10"
     inkscape:pageopacity="0"
     inkscape:pageshadow="2"
     inkscape:window-width="1920"
     inkscape:window-height="1001"
     id="namedview6"
     showgrid="false"
     inkscape:zoom="34.583333"
     inkscape:cx="12"
     inkscape:cy="12"
     inkscape:window-x="-9"
     inkscape:window-y="-9"
     inkscape:window-maximized="1"
     inkscape:current-layer="svg4" />
  <path
     fill="black"
     d="M 12.018182,0 A 3.2727272,3.2727272 0 0 0 8.936683,2.1818182 H 4.109091 C 3.0514546,2.1818182 2.2,3.0332728 2.2,4.090909 v 18 C 2.2,23.148545 3.0514546,24 4.109091,24 h 15.818182 c 1.057636,0 1.909091,-0.851455 1.909091,-1.909091 v -18 c 0,-1.0576362 -0.851455,-1.9090908 -1.909091,-1.9090908 H 15.09968 A 3.2727272,3.2727272 0 0 0 12.018182,0 Z m 0,2.1818182 a 1.0909091,1.0909091 0 0 1 1.090909,1.090909 1.0909091,1.0909091 0 0 1 -1.090909,1.0909092 1.0909091,1.0909091 0 0 1 -1.090909,-1.0909092 1.0909091,1.0909091 0 0 1 1.090909,-1.090909 z m -7.090909,6 H 15.836364 V 10.909091 H 4.927273 Z m 0,4.0909088 H 15.836364 V 15 H 4.927273 Z m 0,4.090909 h 8.181818 v 2.727273 H 4.927273 Z"
     id="path2"
     style="fill:#ffffff" />
</svg>
