<?xml version="1.0" encoding="UTF-8" standalone="no"?>
<svg
   xmlns:dc="http://purl.org/dc/elements/1.1/"
   xmlns:cc="http://creativecommons.org/ns#"
   xmlns:rdf="http://www.w3.org/1999/02/22-rdf-syntax-ns#"
   xmlns:svg="http://www.w3.org/2000/svg"
   xmlns="http://www.w3.org/2000/svg"
   xmlns:sodipodi="http://sodipodi.sourceforge.net/DTD/sodipodi-0.dtd"
   xmlns:inkscape="http://www.inkscape.org/namespaces/inkscape"
   width="24"
   height="24"
   viewBox="0 0 24 24"
   version="1.1"
   id="svg4"
   sodipodi:docname="bans.svg"
   inkscape:version="1.0.2-2 (e86c870879, 2021-01-15)">
  <metadata
     id="metadata10">
    <rdf:RDF>
      <cc:Work
         rdf:about="">
        <dc:format>image/svg+xml</dc:format>
        <dc:type
           rdf:resource="http://purl.org/dc/dcmitype/StillImage" />
      </cc:Work>
    </rdf:RDF>
  </metadata>
  <defs
     id="defs8" />
  <sodipodi:namedview
     pagecolor="#ffffff"
     bordercolor="#666666"
     borderopacity="1"
     objecttolerance="10"
     gridtolerance="10"
     guidetolerance="10"
     inkscape:pageopacity="0"
     inkscape:pageshadow="2"
     inkscape:window-width="892"
     inkscape:window-height="480"
     id="namedview6"
     showgrid="false"
     inkscape:zoom="34.583333"
     inkscape:cx="12"
     inkscape:cy="12"
     inkscape:window-x="0"
     inkscape:window-y="0"
     inkscape:window-maximized="0"
     inkscape:current-layer="svg4" />
  <path
     fill="black"
     d="m 19.889203,2.4815697 c -0.451298,-0.451296 -1.177932,-0.451296 -1.629228,0 l -0.814614,0.8146138 3.258454,3.2584552 0.814614,-0.8146138 c 0.451296,-0.4512961 0.451296,-1.1779315 0,-1.6292276 z M 13.046128,0.5261785 c -0.722073,-0.7220737 -1.908062,-0.6980646 -2.660222,0.054095 L 4.9540866,6.0120928 C 4.2019259,6.7642535 4.1779173,7.9502426 4.8999909,8.6723163 L 15.327684,19.10001 c 0.722074,0.722073 1.908063,0.698064 2.660224,-0.0541 l 5.431817,-5.431819 c 0.752163,-0.75216 0.77617,-1.93815 0.0541,-2.660223 z M 7.6699957,13.071549 0.33847199,20.403073 c -0.45129599,0.451296 -0.45129599,1.177931 0,1.629228 l 1.62922761,1.629227 c 0.4512959,0.451296 1.1779314,0.451296 1.6292276,0 l 7.3315238,-7.331524 z"
     id="path2"
     style="fill:#ffffff;stroke-width:0.999999" />
</svg>
