<?xml version="1.0" encoding="UTF-8" standalone="no"?>
<svg
   xmlns:dc="http://purl.org/dc/elements/1.1/"
   xmlns:cc="http://creativecommons.org/ns#"
   xmlns:rdf="http://www.w3.org/1999/02/22-rdf-syntax-ns#"
   xmlns:svg="http://www.w3.org/2000/svg"
   xmlns="http://www.w3.org/2000/svg"
   xmlns:sodipodi="http://sodipodi.sourceforge.net/DTD/sodipodi-0.dtd"
   xmlns:inkscape="http://www.inkscape.org/namespaces/inkscape"
   width="24"
   height="24"
   viewBox="0 0 24 24"
   version="1.1"
   id="svg4"
   sodipodi:docname="community.svg"
   inkscape:version="1.0.2-2 (e86c870879, 2021-01-15)">
  <metadata
     id="metadata10">
    <rdf:RDF>
      <cc:Work
         rdf:about="">
        <dc:format>image/svg+xml</dc:format>
        <dc:type
           rdf:resource="http://purl.org/dc/dcmitype/StillImage" />
      </cc:Work>
    </rdf:RDF>
  </metadata>
  <defs
     id="defs8" />
  <sodipodi:namedview
     pagecolor="#ffffff"
     bordercolor="#666666"
     borderopacity="1"
     objecttolerance="10"
     gridtolerance="10"
     guidetolerance="10"
     inkscape:pageopacity="0"
     inkscape:pageshadow="2"
     inkscape:window-width="1920"
     inkscape:window-height="1001"
     id="namedview6"
     showgrid="false"
     inkscape:zoom="12.227055"
     inkscape:cx="25.00609"
     inkscape:cy="25.053999"
     inkscape:window-x="-9"
     inkscape:window-y="-9"
     inkscape:window-maximized="1"
     inkscape:current-layer="svg4" />
  <path
     fill="black"
     d="M 8.1,0 0,6.6 V 24 H 3 V 21.832031 21.313477 19.044141 C 3,16.886332 4.179753,15.13887 5.677149,15.012305 5.734353,15.004789 5.791914,15 5.85,15 c 0.058086,0 0.115647,0.0048 0.172852,0.0123 C 7.520247,15.13887 8.7,16.886332 8.7,19.044141 V 21.313477 21.832031 24 h 2.7 v -0.9 -7.5 l 4.8,-2.594532 V 6.6 L 13.8,4.6447265 V 0 h -2.1 v 2.9332032 z m -6,7.8 H 6.6 V 12 H 2.1 Z m 7.2,0 h 4.5 V 12 H 9.3 Z m 9.15,5.7 -5.55,3 V 24 H 24 v -7.5 z m -2.25,3.909961 h 4.5 v 4.2 h -4.5 z"
     id="path2"
     style="fill:#ffffff" />
</svg>
