<?xml version="1.0" encoding="UTF-8" standalone="no"?>
<svg
   xmlns:dc="http://purl.org/dc/elements/1.1/"
   xmlns:cc="http://creativecommons.org/ns#"
   xmlns:rdf="http://www.w3.org/1999/02/22-rdf-syntax-ns#"
   xmlns:svg="http://www.w3.org/2000/svg"
   xmlns="http://www.w3.org/2000/svg"
   xmlns:sodipodi="http://sodipodi.sourceforge.net/DTD/sodipodi-0.dtd"
   xmlns:inkscape="http://www.inkscape.org/namespaces/inkscape"
   width="24"
   height="24"
   viewBox="0 0 24 24"
   version="1.1"
   id="svg4"
   sodipodi:docname="delete.svg"
   inkscape:version="1.0.2-2 (e86c870879, 2021-01-15)">
  <metadata
     id="metadata10">
    <rdf:RDF>
      <cc:Work
         rdf:about="">
        <dc:format>image/svg+xml</dc:format>
        <dc:type
           rdf:resource="http://purl.org/dc/dcmitype/StillImage" />
      </cc:Work>
    </rdf:RDF>
  </metadata>
  <defs
     id="defs8" />
  <sodipodi:namedview
     pagecolor="#ffffff"
     bordercolor="#666666"
     borderopacity="1"
     objecttolerance="10"
     gridtolerance="10"
     guidetolerance="10"
     inkscape:pageopacity="0"
     inkscape:pageshadow="2"
     inkscape:window-width="779"
     inkscape:window-height="480"
     id="namedview6"
     showgrid="false"
     inkscape:zoom="34.583333"
     inkscape:cx="12"
     inkscape:cy="12"
     inkscape:window-x="0"
     inkscape:window-y="0"
     inkscape:window-maximized="0"
     inkscape:current-layer="svg4" />
  <path
     fill="black"
     d="M 8.2285156 0 L 8.2285156 2.5253906 L 0.65039062 2.5253906 L 0.65039062 5.0507812 L 23.388672 5.0507812 L 23.388672 2.5253906 L 15.808594 2.5253906 L 15.808594 0 L 8.2285156 0 z M 3.1757812 6.3144531 L 3.1757812 21.472656 C 3.1757812 22.86473 4.3097885 24 5.703125 24 L 18.335938 24 C 19.729274 24 20.861328 22.86473 20.861328 21.472656 L 20.861328 6.3144531 L 3.1757812 6.3144531 z M 8.2285156 11.369141 L 10.755859 11.369141 L 10.755859 18.949219 L 8.2285156 18.949219 L 8.2285156 11.369141 z M 13.283203 11.369141 L 15.808594 11.369141 L 15.808594 18.949219 L 13.283203 18.949219 L 13.283203 11.369141 z"
     id="path2"
     style="fill:#ffffff" />
</svg>
