<?xml version="1.0" encoding="UTF-8" standalone="no"?>
<svg
   xmlns:dc="http://purl.org/dc/elements/1.1/"
   xmlns:cc="http://creativecommons.org/ns#"
   xmlns:rdf="http://www.w3.org/1999/02/22-rdf-syntax-ns#"
   xmlns:svg="http://www.w3.org/2000/svg"
   xmlns="http://www.w3.org/2000/svg"
   xmlns:sodipodi="http://sodipodi.sourceforge.net/DTD/sodipodi-0.dtd"
   xmlns:inkscape="http://www.inkscape.org/namespaces/inkscape"
   width="24"
   height="24"
   viewBox="0 0 24 24"
   version="1.1"
   id="svg4"
   sodipodi:docname="members.svg"
   inkscape:version="1.0.2-2 (e86c870879, 2021-01-15)">
  <metadata
     id="metadata10">
    <rdf:RDF>
      <cc:Work
         rdf:about="">
        <dc:format>image/svg+xml</dc:format>
        <dc:type
           rdf:resource="http://purl.org/dc/dcmitype/StillImage" />
      </cc:Work>
    </rdf:RDF>
  </metadata>
  <defs
     id="defs8" />
  <sodipodi:namedview
     pagecolor="#ffffff"
     bordercolor="#666666"
     borderopacity="1"
     objecttolerance="10"
     gridtolerance="10"
     guidetolerance="10"
     inkscape:pageopacity="0"
     inkscape:pageshadow="2"
     inkscape:window-width="756"
     inkscape:window-height="480"
     id="namedview6"
     showgrid="false"
     inkscape:zoom="34.583333"
     inkscape:cx="12"
     inkscape:cy="12"
     inkscape:window-x="0"
     inkscape:window-y="0"
     inkscape:window-maximized="0"
     inkscape:current-layer="svg4" />
  <path
     fill="black"
     d="M 9.6,2.400003 A 4.7999994,4.7999994 0 0 0 4.8,7.2000028 4.7999994,4.7999994 0 0 0 9.6,12.000002 4.7999994,4.7999994 0 0 0 14.4,7.2000028 4.7999994,4.7999994 0 0 0 9.6,2.400003 Z m 5.61211,0.06914 A 15.599998,10.799999 0 0 1 16.8,7.2000018 15.599998,10.799999 0 0 1 15.20508,11.926759 4.7999994,4.7999994 0 0 0 19.2,7.2000018 4.7999994,4.7999994 0 0 0 15.21211,2.469143 Z M 9.6,13.050001 A 9.5999988,8.399999 0 0 0 0,21.45 9.5999988,8.399999 0 0 0 0.006,21.6 h 19.18535 a 9.5999988,8.399999 0 0 0 0.009,-0.15 9.5999988,8.399999 0 0 0 -9.6,-8.399999 z m 8.74805,0.754687 A 11.399999,9.8999988 0 0 1 21.6,20.7 11.399999,9.8999988 0 0 1 21.5432,21.6 h 2.44805 a 9.5999988,8.399999 0 0 0 0.009,-0.15 9.5999988,8.399999 0 0 0 -5.65195,-7.645312 z"
     id="path2"
     style="fill:#ffffff" />
</svg>
