<?xml version="1.0" encoding="UTF-8" standalone="no"?>
<svg
   xmlns:dc="http://purl.org/dc/elements/1.1/"
   xmlns:cc="http://creativecommons.org/ns#"
   xmlns:rdf="http://www.w3.org/1999/02/22-rdf-syntax-ns#"
   xmlns:svg="http://www.w3.org/2000/svg"
   xmlns="http://www.w3.org/2000/svg"
   xmlns:sodipodi="http://sodipodi.sourceforge.net/DTD/sodipodi-0.dtd"
   xmlns:inkscape="http://www.inkscape.org/namespaces/inkscape"
   width="24"
   height="24"
   viewBox="0 0 24 24"
   version="1.1"
   id="svg4"
   sodipodi:docname="overview.svg"
   inkscape:version="1.0.2-2 (e86c870879, 2021-01-15)">
  <metadata
     id="metadata10">
    <rdf:RDF>
      <cc:Work
         rdf:about="">
        <dc:format>image/svg+xml</dc:format>
        <dc:type
           rdf:resource="http://purl.org/dc/dcmitype/StillImage" />
      </cc:Work>
    </rdf:RDF>
  </metadata>
  <defs
     id="defs8" />
  <sodipodi:namedview
     pagecolor="#ffffff"
     bordercolor="#666666"
     borderopacity="1"
     objecttolerance="10"
     gridtolerance="10"
     guidetolerance="10"
     inkscape:pageopacity="0"
     inkscape:pageshadow="2"
     inkscape:window-width="1920"
     inkscape:window-height="1001"
     id="namedview6"
     showgrid="false"
     inkscape:zoom="34.583333"
     inkscape:cx="12"
     inkscape:cy="16.626506"
     inkscape:window-x="-9"
     inkscape:window-y="-9"
     inkscape:window-maximized="1"
     inkscape:current-layer="svg4" />
  <path
     fill="black"
     d="M 11.999999,0 C 5.3725824,5.5228472e-7 0,5.3725834 0,12 c 0,6.627417 5.3725824,11.999999 11.999999,12 6.627417,0 12,-5.372583 12,-12 0,-6.627417 -5.372583,-12 -12,-12 z m 0,2.4 c 5.301934,0 9.6,4.2980664 9.6,9.6 0,5.301934 -4.298066,9.6 -9.6,9.6 -5.301933,-1e-6 -9.5999986,-4.298067 -9.5999986,-9.6 0,-5.301933 4.2980656,-9.5999992 9.5999986,-9.6 z m -1.2,3.6 v 2.4 h 2.4 V 6 Z m -0.6,4.189831 v 2.4 h 0.6 V 14.4 H 8.9999994 v 2.4 h 1.7999996 2.4 1.8 v -2.4 h -1.8 v -1.810169 -2.4 h -2.4 z"
     id="path2"
     style="fill:#ffffff" />
</svg>
