<?xml version="1.0" encoding="UTF-8" standalone="no"?>
<svg
   xmlns:dc="http://purl.org/dc/elements/1.1/"
   xmlns:cc="http://creativecommons.org/ns#"
   xmlns:rdf="http://www.w3.org/1999/02/22-rdf-syntax-ns#"
   xmlns:svg="http://www.w3.org/2000/svg"
   xmlns="http://www.w3.org/2000/svg"
   xmlns:sodipodi="http://sodipodi.sourceforge.net/DTD/sodipodi-0.dtd"
   xmlns:inkscape="http://www.inkscape.org/namespaces/inkscape"
   version="1.1"
   id="Layer_1"
   x="0px"
   y="0px"
   viewBox="0 0 512 512"
   style="enable-background:new 0 0 512 512;"
   xml:space="preserve"
   sodipodi:docname="sticker.svg"
   inkscape:version="1.0.2-2 (e86c870879, 2021-01-15)"><metadata
   id="metadata43"><rdf:RDF><cc:Work
       rdf:about=""><dc:format>image/svg+xml</dc:format><dc:type
         rdf:resource="http://purl.org/dc/dcmitype/StillImage" /></cc:Work></rdf:RDF></metadata><defs
   id="defs41" /><sodipodi:namedview
   pagecolor="#ffffff"
   bordercolor="#666666"
   borderopacity="1"
   objecttolerance="10"
   gridtolerance="10"
   guidetolerance="10"
   inkscape:pageopacity="0"
   inkscape:pageshadow="2"
   inkscape:window-width="1920"
   inkscape:window-height="1001"
   id="namedview39"
   showgrid="false"
   inkscape:zoom="0.81054688"
   inkscape:cx="-26.776723"
   inkscape:cy="328.37604"
   inkscape:window-x="-9"
   inkscape:window-y="-9"
   inkscape:window-maximized="1"
   inkscape:current-layer="Layer_1" />
<g
   id="g48"><g
     id="g6"
     style="fill:#ffffff">
	<g
   id="g4"
   style="fill:#ffffff">
		<path
   d="M264.157,0H256C114.842,0,0,114.842,0,256s114.842,256,256,256s256-114.842,256-256v-8.157L264.157,0z M445.972,237.513    c-56.308-1.762-98.861-16.712-126.817-44.667c-27.955-27.955-42.904-70.51-44.666-126.815L445.972,237.513z M256,472.615    c-119.442,0-216.615-97.174-216.615-216.615c0-112.413,86.079-205.085,195.78-215.604    c-2.527,79.869,16.307,140.464,56.141,180.299c37.481,37.481,93.314,56.384,166.316,56.382c4.586,0,9.261-0.096,13.984-0.247    C461.088,386.534,368.414,472.615,256,472.615z"
   id="path2"
   style="fill:#ffffff" />
	</g>
</g></g>
<g
   id="g8">
</g>
<g
   id="g10">
</g>
<g
   id="g12">
</g>
<g
   id="g14">
</g>
<g
   id="g16">
</g>
<g
   id="g18">
</g>
<g
   id="g20">
</g>
<g
   id="g22">
</g>
<g
   id="g24">
</g>
<g
   id="g26">
</g>
<g
   id="g28">
</g>
<g
   id="g30">
</g>
<g
   id="g32">
</g>
<g
   id="g34">
</g>
<g
   id="g36">
</g>
</svg>
